<?xml version="1.0" encoding="UTF-8" standalone="no"?>
<!-- Created with Inkscape (http://www.inkscape.org/) -->

<svg
   width="512"
   height="511.99997"
   viewBox="0 0 4585.6951 4523.393"
   version="1.1"
   id="svg1"
   xml:space="preserve"
   sodipodi:docname="icon.svg"
   inkscape:version="1.4.4 (dcaf3e7d9e, 2026-05-05)"
   xmlns:inkscape="http://www.inkscape.org/namespaces/inkscape"
   xmlns:sodipodi="http://sodipodi.sourceforge.net/DTD/sodipodi-0.dtd"
   xmlns="http://www.w3.org/2000/svg"
   xmlns:svg="http://www.w3.org/2000/svg"><sodipodi:namedview
     id="namedview1"
     pagecolor="#ffffff"
     bordercolor="#000000"
     borderopacity="0.25"
     inkscape:showpageshadow="2"
     inkscape:pageopacity="0.0"
     inkscape:pagecheckerboard="0"
     inkscape:deskcolor="#d1d1d1"
     inkscape:document-units="mm"
     inkscape:zoom="1.6304489"
     inkscape:cx="124.19892"
     inkscape:cy="202.09158"
     inkscape:window-width="2560"
     inkscape:window-height="1416"
     inkscape:window-x="0"
     inkscape:window-y="0"
     inkscape:window-maximized="1"
     inkscape:current-layer="layer1"><inkscape:page
       x="0"
       y="0"
       width="4585.6953"
       height="4523.3931"
       id="page2"
       margin="0"
       bleed="0" /></sodipodi:namedview><defs
     id="defs1"><filter
       inkscape:collect="always"
       style="color-interpolation-filters:sRGB"
       id="filter2"
       x="-0.026708273"
       y="-0.026708273"
       width="1.0534165"
       height="1.0534165"><feGaussianBlur
         inkscape:collect="always"
         stdDeviation="4.4386563"
         id="feGaussianBlur2" /></filter><filter
       inkscape:collect="always"
       style="color-interpolation-filters:sRGB"
       id="filter3"
       x="-0.0073157208"
       y="-0.0073157208"
       width="1.0146314"
       height="1.0146314"><feGaussianBlur
         inkscape:collect="always"
         stdDeviation="1.1586297"
         id="feGaussianBlur3" /></filter><filter
       inkscape:collect="always"
       style="color-interpolation-filters:sRGB"
       id="filter4"
       x="-0.01232533"
       y="-0.012495091"
       width="1.0246507"
       height="1.0249902"><feGaussianBlur
         inkscape:collect="always"
         stdDeviation="1.5307426"
         id="feGaussianBlur4" /></filter></defs><g
     inkscape:label="Capa 1"
     inkscape:groupmode="layer"
     id="layer1"
     transform="translate(1732.8005,1152.0562)"><g
       id="g4"
       transform="matrix(10.723867,0,0,10.723867,-3202.9678,-4625.6471)"><circle
         style="fill:#1a1a1a;stroke:#ff6600;stroke-width:0.377953;stroke-linecap:round;stroke-linejoin:round"
         id="circle1"
         cx="356.90094"
         cy="540.42041"
         r="202.96617" /><circle
         style="fill:#1a1a1a;stroke:#ff6600;stroke-width:0.377953;stroke-linecap:round;stroke-linejoin:round;filter:url(#filter2)"
         id="circle2"
         cx="350.90094"
         cy="534.42041"
         r="202.96617" /><circle
         style="fill:#c8b07a;stroke:#ff6600;stroke-width:0.377953;stroke-linecap:round;stroke-linejoin:round;filter:url(#filter3)"
         id="path1"
         cx="350.90094"
         cy="534.42041"
         r="202.96617" /><path
         style="fill:#2d1212;fill-opacity:1;stroke:none;stroke-width:9.18243;filter:url(#filter4)"
         d="m 351.36317,379.60871 c -36.42939,4.78326 -84.62314,40.32142 -116.61462,58.34607 -9.08953,5.12119 -32.97137,20.38928 -17.48157,32.75109 12.80649,10.2204 50.26908,3.32937 66.06952,3.32937 h 139.2928 c 19.50428,0 45.55068,4.54035 64.30741,-1.0298 19.76305,-5.86901 3.81616,-25.14668 -6.06132,-31.31388 -28.56186,-17.83316 -60.51699,-32.7696 -90.63977,-47.84065 -11.38541,-5.69639 -25.55513,-15.99077 -38.87245,-14.2422 m -3.04932,38.13502 c 22.55396,-8.05827 35.04532,26.8107 12.57749,34.8382 -22.55385,8.05827 -35.04539,-26.81068 -12.57749,-34.8382 m -116.80718,69.24897 6.47869,116.6172 h 38.87245 l 6.47869,-116.6172 h -51.82983 m 64.78729,0 6.47876,116.6172 h 38.87238 l 6.47877,-116.6172 h -51.82991 m 64.78736,0 6.4787,116.6172 h 38.87245 l 6.47869,-116.6172 h -51.82984 m 64.78729,0 6.47877,116.6172 h 38.87237 l 6.47877,-116.6172 h -51.82991 m -207.3194,149.01086 c -15.23754,5.05727 -18.57234,28.7171 0.18998,31.91375 71.11254,12.11589 154.33176,0.47988 226.56575,0.47988 14.26704,0 37.76028,4.46234 50.8,-1.95462 14.75363,-7.26033 6.1934,-26.575 -5.44887,-30.43907 -2.09186,-26.84783 -31.23395,-19.43619 -51.82993,-19.43619 H 276.85791 c -21.30468,0 -56.11244,-8.75092 -58.3086,19.43619 z"
         id="path2" /><path
         style="fill:#5c1818;fill-opacity:1;stroke:none;stroke-width:9.18243"
         d="m 347.36317,375.60871 c -36.42939,4.78326 -84.62314,40.32142 -116.61462,58.34607 -9.08953,5.12119 -32.97137,20.38928 -17.48157,32.75109 12.80649,10.2204 50.26908,3.32937 66.06952,3.32937 h 139.2928 c 19.50428,0 45.55068,4.54035 64.30741,-1.0298 19.76305,-5.86901 3.81616,-25.14668 -6.06132,-31.31388 -28.56186,-17.83316 -60.51699,-32.7696 -90.63977,-47.84065 -11.38541,-5.69639 -25.55513,-15.99077 -38.87245,-14.2422 m -3.04932,38.13502 c 22.55396,-8.05827 35.04532,26.8107 12.57749,34.8382 -22.55385,8.05827 -35.04539,-26.81068 -12.57749,-34.8382 m -116.80718,69.24897 6.47869,116.6172 h 38.87245 l 6.47869,-116.6172 h -51.82983 m 64.78729,0 6.47876,116.6172 h 38.87238 l 6.47877,-116.6172 h -51.82991 m 64.78736,0 6.4787,116.6172 h 38.87245 l 6.47869,-116.6172 h -51.82984 m 64.78729,0 6.47877,116.6172 h 38.87237 l 6.47877,-116.6172 h -51.82991 m -207.3194,149.01086 c -15.23754,5.05727 -18.57234,28.7171 0.18998,31.91375 71.11254,12.11589 154.33176,0.47988 226.56575,0.47988 14.26704,0 37.76028,4.46234 50.8,-1.95462 14.75363,-7.26033 6.1934,-26.575 -5.44887,-30.43907 -2.09186,-26.84783 -31.23395,-19.43619 -51.82993,-19.43619 H 272.85791 c -21.30468,0 -56.11244,-8.75092 -58.3086,19.43619 z"
         id="path2-6" /></g></g></svg>
