<?xml version="1.0" encoding="UTF-8" standalone="no"?>
<!-- Created with Inkscape (http://www.inkscape.org/) -->

<svg
   width="113.74673mm"
   height="112.20135mm"
   viewBox="0 0 429.90892 424.06812"
   version="1.1"
   id="svg1"
   xml:space="preserve"
   sodipodi:docname="logo.svg"
   inkscape:version="1.4.4 (dcaf3e7d9e, 2026-05-05)"
   xmlns:inkscape="http://www.inkscape.org/namespaces/inkscape"
   xmlns:sodipodi="http://sodipodi.sourceforge.net/DTD/sodipodi-0.dtd"
   xmlns="http://www.w3.org/2000/svg"
   xmlns:svg="http://www.w3.org/2000/svg"><sodipodi:namedview
     id="namedview1"
     pagecolor="#ffffff"
     bordercolor="#000000"
     borderopacity="0.25"
     inkscape:showpageshadow="2"
     inkscape:pageopacity="0.0"
     inkscape:pagecheckerboard="0"
     inkscape:deskcolor="#d1d1d1"
     inkscape:document-units="mm"
     inkscape:zoom="1.1529015"
     inkscape:cx="157.86258"
     inkscape:cy="233.75805"
     inkscape:window-width="2560"
     inkscape:window-height="1416"
     inkscape:window-x="0"
     inkscape:window-y="0"
     inkscape:window-maximized="1"
     inkscape:current-layer="layer1"><inkscape:page
       x="7.3547898e-22"
       y="0"
       width="429.90894"
       height="424.06812"
       id="page1"
       margin="0"
       bleed="0" /></sodipodi:namedview><defs
     id="defs1" /><g
     inkscape:label="Capa 1"
     inkscape:groupmode="layer"
     id="layer1"
     transform="translate(-135.94647,-322.38636)"><path
       style="fill:#5c1818;fill-opacity:1;stroke:none;stroke-width:13.244"
       d="m 345.79836,322.67095 c -52.54284,6.89898 -122.05366,58.15638 -168.19561,84.1537 -13.11001,7.3864 -47.55526,29.40786 -25.21401,47.23755 18.47105,14.74109 72.5041,4.80202 95.29339,4.80202 h 200.90479 c 28.13141,0 65.69866,6.54863 92.75186,-1.48531 28.50464,-8.46498 5.50413,-36.26955 -8.74236,-45.16463 -41.19534,-25.72112 -87.28486,-47.26425 -130.73156,-69.00153 -16.4214,-8.21601 -36.85867,-23.0638 -56.0665,-20.5418 m -4.3981,55.0029 c 32.53003,-11.62261 50.54657,38.66961 18.14076,50.24783 -32.52986,11.62261 -50.54666,-38.66958 -18.14076,-50.24783 m -168.47334,99.87917 9.34435,168.19932 h 56.06651 l 9.34435,-168.19932 h -74.75521 m 93.44401,0 9.34445,168.19932 h 56.06641 l 9.34445,-168.19932 h -74.75531 m 93.44411,0 9.34435,168.19932 h 56.06651 l 9.34435,-168.19932 h -74.75521 m 93.444,0 9.34446,168.19932 h 56.0664 l 9.34446,-168.19932 H 453.25904 M 154.23812,692.47436 c -21.97741,7.2942 -26.78725,41.41925 0.27402,46.02984 102.56704,17.475 222.59578,0.69214 326.7803,0.69214 20.57765,0 54.46241,6.43612 73.26986,-2.81919 21.27946,-10.47171 8.93286,-38.32965 -7.85901,-43.90287 -3.01714,-38.72316 -45.04935,-28.03321 -74.75534,-28.03321 H 238.33792 c -30.72816,0 -80.93208,-12.62162 -84.09965,28.03321 z"
       id="path2-6" /></g></svg>
