<?xml version="1.0" encoding="UTF-8" standalone="no"?>
<!-- Created with Inkscape (http://www.inkscape.org/) -->

<svg
   width="115.8025mm"
   height="138.4993mm"
   viewBox="0 0 437.67874 523.46192"
   version="1.1"
   id="svg1"
   xml:space="preserve"
   sodipodi:docname="logo.svg"
   inkscape:version="1.4.4 (dcaf3e7d9e, 2026-05-05)"
   xmlns:inkscape="http://www.inkscape.org/namespaces/inkscape"
   xmlns:sodipodi="http://sodipodi.sourceforge.net/DTD/sodipodi-0.dtd"
   xmlns="http://www.w3.org/2000/svg"
   xmlns:svg="http://www.w3.org/2000/svg"><sodipodi:namedview
     id="namedview1"
     pagecolor="#ffffff"
     bordercolor="#000000"
     borderopacity="0.25"
     inkscape:showpageshadow="2"
     inkscape:pageopacity="0.0"
     inkscape:pagecheckerboard="0"
     inkscape:deskcolor="#d1d1d1"
     inkscape:document-units="mm"
     inkscape:zoom="1.1529015"
     inkscape:cx="157.86258"
     inkscape:cy="233.75805"
     inkscape:window-width="2560"
     inkscape:window-height="1416"
     inkscape:window-x="0"
     inkscape:window-y="0"
     inkscape:window-maximized="1"
     inkscape:current-layer="layer1"><inkscape:page
       x="0"
       y="0"
       width="437.67874"
       height="523.46191"
       id="page2"
       margin="0"
       bleed="0" /></sodipodi:namedview><defs
     id="defs1" /><g
     inkscape:label="Capa 1"
     inkscape:groupmode="layer"
     id="layer1"
     transform="translate(-132.06157,-272.68946)"><path
       style="fill:#5c1818;fill-opacity:1;stroke-width:0.978201"
       d="m 342.77853,785.90807 c -1.5378,-2.86387 -4.48975,-8.28835 -6.55989,-12.05442 -2.07014,-3.76608 -5.20896,-9.70864 -6.97516,-13.20571 -31.50579,-62.38142 -63.28232,-129.69614 -67.25758,-142.47706 -0.81122,-2.60817 -1.96134,-5.03 -2.55581,-5.38185 -0.59447,-0.35184 -4.03883,-0.93137 -7.65415,-1.28782 -3.6153,-0.35647 -14.50158,-1.70196 -24.19173,-2.99001 -9.69016,-1.28804 -24.48966,-3.24305 -32.8878,-4.34447 -39.59149,-5.19245 -57.1672,-7.6977 -57.82047,-8.24175 -0.39159,-0.32612 1.88676,-0.65562 5.06298,-0.73224 9.85796,-0.2378 14.92666,-0.75508 32.20262,-3.28647 0.96902,-0.14198 4.6689,-0.55799 8.22196,-0.92445 3.55305,-0.36648 9.36714,-1.08046 12.9202,-1.58665 3.55306,-0.50619 13.3313,-1.82423 21.72943,-2.92896 8.39814,-1.10474 15.95108,-2.56641 16.78433,-3.24816 1.23288,-1.00871 0.48607,-2.50085 -4.01051,-8.01302 -3.03902,-3.72543 -6.80242,-8.05983 -8.3631,-9.632 -4.34106,-4.37305 -20.94605,-32.62458 -24.26888,-41.2908 -4.83023,-12.59764 -5.80472,-19.75401 -4.9323,-36.22151 l 0.78985,-14.90901 -11.19042,-18.38864 c -9.88671,-16.2463 -11.55858,-19.75618 -14.35055,-30.12703 -2.77084,-10.29239 -3.16754,-13.90744 -3.22033,-29.34602 -0.0682,-19.95738 0.98528,-24.57747 8.76861,-38.45384 8.39987,-14.97557 22.36677,-30.00803 50.47085,-54.32136 13.2473,-11.46046 22.3318,-22.04665 23.47384,-23.25926 1.51791,-1.61171 1.83243,-2.22784 3.31588,-2.32421 2.87357,-0.18668 2.55693,1.69478 2.55693,1.97722 0,0.28244 -1.82767,3.53606 -4.06149,7.23026 -4.98381,8.24204 -10.9627,14.85135 -30.83465,34.08597 -8.48314,8.21107 -17.83016,17.73755 -20.77115,21.16996 -12.26413,14.31337 -18.17547,28.36954 -19.18342,45.61494 -0.93917,16.06833 1.58938,22.51594 18.43097,46.99784 4.53078,6.58621 9.9457,15.53559 12.03317,19.88752 3.79423,7.91019 3.79541,7.91828 3.88971,26.49841 0.10293,20.28079 0.49041,22.70488 5.43183,33.98111 7.6194,17.38732 21.2585,36.32004 32.12135,44.5883 5.60317,4.26485 7.30025,5.0006 12.63637,5.47828 23.0997,2.06789 33.8564,2.41342 95.43081,3.06546 63.01929,0.66734 74.92917,0.10179 83.39404,-3.95997 16.737,-8.03105 34.58858,-29.26631 43.28489,-51.48932 3.22573,-8.24323 3.41276,-9.04974 5.99006,-25.83205 4.65078,-30.2839 4.53084,-29.99407 23.86746,-57.67644 6.01253,-8.60756 9.6518,-17.59243 10.48724,-25.89158 1.44267,-14.33129 -8.44549,-34.23841 -29.43177,-59.2528 -28.18989,-33.60072 -32.93838,-39.6974 -39.56861,-50.80304 -3.84703,-6.44378 -5.87981,-10.79158 -5.99795,-11.46617 -0.26833,-1.53224 0.76187,-4.09453 3.25323,-3.89019 2.01667,0.16541 3.48964,1.85976 5.11887,4.50364 4.21273,6.83634 14.01839,19.80532 32.9404,36.75258 22.38316,20.04718 31.21949,30.61959 38.51961,46.08761 10.11366,21.42958 11.57747,45.36908 4.33399,70.87908 -4.68533,16.50076 -9.35581,26.1951 -19.20769,39.86879 -9.93467,13.78861 -11.23258,17.0071 -12.49277,30.97903 -2.72869,30.25352 -6.99754,38.70024 -32.44389,64.19612 -5.18077,5.19085 -8.99013,9.73987 -8.46525,10.10891 0.52489,0.36905 14.43245,2.75357 30.90571,5.29895 65.80881,10.16847 74.5416,11.67756 72.18905,12.47476 -1.26637,0.42913 -14.98778,2.13066 -30.49203,3.78117 -15.50424,1.65051 -39.55344,4.29302 -53.44265,5.87224 -13.88923,1.57923 -28.42446,3.21586 -32.30052,3.63696 l -7.04738,0.76565 -10.63948,17.52956 c -5.85172,9.64126 -11.63379,19.54554 -12.84905,22.00951 -1.21527,2.46397 -4.68528,8.88186 -7.71113,14.26196 -5.5022,9.78314 -10.43949,18.98369 -17.58519,32.76972 -2.09151,4.03508 -5.24981,9.97765 -7.01847,13.20571 -12.998,23.72335 -36.61111,73.70856 -37.57452,76.14018 -1.37999,3.48305 -2.60861,2.36405 -5.1985,-2.45912 z M 330.35857,632.63558 c 0,-0.89219 -3.29575,-4.61685 -8.21434,-9.28336 -7.1871,-6.81874 -30.40832,-19.65733 -32.46153,-17.94738 -1.46531,1.22034 5.53178,9.32668 13.31598,15.42697 4.41568,3.46047 11.18882,7.71064 15.05143,9.44483 6.78812,3.04766 12.30846,4.10565 12.30846,2.35894 z m 59.01279,-8.91004 c 8.73142,-4.69223 12.43111,-7.4769 18.7782,-14.13392 7.14191,-7.49064 7.72869,-8.43676 6.08257,-9.80769 -1.00203,-0.8345 -2.0739,-1.51729 -2.38193,-1.51729 -1.56532,0 -24.02903,15.00466 -28.42658,18.98757 -6.8909,6.24116 -9.86106,12.31485 -6.02222,12.31485 0.60291,0 5.98939,-2.62959 11.96996,-5.84352 z"
       id="path2"
       sodipodi:nodetypes="ssssssssssssssssssscssssssssssssssssssssssssssssssssssssssssscssssssssssssssssssss" /></g></svg>
