<svg xmlns="http://www.w3.org/2000/svg" viewBox="0 0 200 280">
  <rect width="200" height="280" fill="#e8dcc2" rx="4"/>
  <rect x="10" y="10" width="180" height="260" fill="#f4ecd8" rx="2" stroke="#c8b07a" stroke-width="1"/>
  <circle cx="100" cy="120" r="45" fill="none" stroke="#8b6b2f" stroke-width="1.5"/>
  <circle cx="100" cy="120" r="35" fill="none" stroke="#c8b07a" stroke-width="0.8"/>
  <circle cx="100" cy="120" r="25" fill="none" stroke="#c8b07a" stroke-width="0.8"/>
  <line x1="55" y1="120" x2="145" y2="120" stroke="#8b6b2f" stroke-width="1"/>
  <line x1="100" y1="75" x2="100" y2="165" stroke="#8b6b2f" stroke-width="1"/>
  <path d="M100 120 L55 95 M100 120 L145 95 M100 120 L55 145 M100 120 L145 145" stroke="#c8b07a" stroke-width="0.5"/>
  <polygon points="100,50 103,58 97,58" fill="#6e1f1f"/>
  <polygon points="100,190 103,182 97,182" fill="#6e1f1f"/>
  <polygon points="50,120 58,117 58,123" fill="#6e1f1f"/>
  <polygon points="150,120 142,117 142,123" fill="#6e1f1f"/>
  <circle cx="100" cy="120" r="3" fill="#6e1f1f"/>
  <text x="100" y="215" text-anchor="middle" font-size="11" fill="#8a6a4a" font-family="Georgia,serif" font-style="italic">Mapa</text>
  <rect x="70" y="235" width="60" height="20" rx="3" fill="#8b6b2f" opacity="0.3"/>
  <text x="100" y="249" text-anchor="middle" font-size="9" fill="#5a4a3a" font-family="Georgia,serif">brújula / rosa</text>
</svg>